<?xml version="1.0" encoding="utf-8"?>
<!-- Generator: Adobe Illustrator 25.2.0, SVG Export Plug-In . SVG Version: 6.00 Build 0)  -->
<svg version="1.1" id="Layer_1" xmlns="http://www.w3.org/2000/svg" xmlns:xlink="http://www.w3.org/1999/xlink" x="0px" y="0px"
	 viewBox="0 0 338.85 103.75" style="enable-background:new 0 0 338.85 103.75;" xml:space="preserve">
<style type="text/css">
	.st0{fill:#8FC3C1;}
</style>
<g>
	<g>
		<path class="st0" d="M6.51,84.68c-0.24-0.08-0.49-0.4-0.49-0.65c0-9.47,0-14.21,0-23.68c0-0.25,0.24-0.42,0.49-0.34
			c4.98,1.55,7.47,2.23,12.46,3.44c5.52,1.34,8.44,4.82,8.44,8.64c0,1.97-0.77,3.39-2.11,4.22c0,0.03,0,0.05,0,0.08
			c1.91,1.63,3.04,3.82,3.04,6.37c0,4.73-3.41,6.8-9.25,5.39C14.06,86.94,11.54,86.25,6.51,84.68z M11.54,66.19
			c0,2.01,0,3.01,0,5.02c2.82,0.8,4.24,1.17,7.06,1.86c2.43,0.59,3.29-0.38,3.29-1.69c0-1.4-1.1-2.78-3.69-3.42
			C15.53,67.29,14.2,66.94,11.54,66.19z M18.52,83.33c3.08,0.75,4.3,0.01,4.3-1.96c0-1.81-1.38-3.33-4.42-4.07
			c-2.74-0.67-4.11-1.03-6.86-1.81c0,2.4,0,3.6,0,6C14.33,82.28,15.73,82.64,18.52,83.33z"/>
		<path class="st0" d="M37.35,67.74c-0.16-0.27-0.2-0.4-0.2-0.48c0-0.12,0.08-0.23,0.24-0.21c2.06,0.31,3.09,0.45,5.15,0.71
			c0.49,0.06,0.69,0.17,0.97,0.62c1.67,2.59,2.51,3.88,4.18,6.44c0.89,1.33,2.03,3.53,2.03,3.53c0.06,0.01,0.1,0.01,0.16,0.02
			c0,0,1.1-1.91,2.03-3.15c1.67-2.24,2.51-3.37,4.18-5.64c0.28-0.39,0.49-0.46,0.97-0.43c2.06,0.14,3.09,0.19,5.15,0.29
			c0.16,0.01,0.24,0.13,0.24,0.26c0,0.08-0.04,0.2-0.2,0.44c-3.88,5.46-5.82,8.16-9.7,13.48c0,3.75,0,5.62,0,9.37
			c0,0.25-0.24,0.47-0.49,0.45c-1.82-0.16-2.73-0.24-4.54-0.43c-0.24-0.03-0.49-0.3-0.49-0.55c0-3.75,0-5.62,0-9.37
			C43.17,77.03,41.23,73.96,37.35,67.74z"/>
		<path class="st0" d="M110.06,77.9c-0.41,0.04-0.61-0.11-0.69-0.59c-0.41-2.8-2.96-4.73-6.61-4.45c-4.18,0.33-7.59,3.77-7.59,8.58
			c0,4.77,3.25,7.88,7.59,7.53c3.69-0.29,6.17-2.38,6.61-5.17c0.08-0.54,0.28-0.72,0.77-0.77c1.62-0.15,2.43-0.23,4.06-0.4
			c0.32-0.03,0.69,0.13,0.69,0.54c0,5.3-4.91,9.92-12.13,10.49c-7.34,0.58-13.11-4.33-13.11-11.93c0-7.57,5.76-12.98,13.11-13.56
			c7.71-0.6,12.13,3.82,12.13,8.71c0,0.29-0.2,0.56-0.65,0.6C112.56,77.65,111.73,77.74,110.06,77.9z"/>
		<path class="st0" d="M144.22,84.12c-4.74,0.69-7.11,1.02-11.85,1.65c-0.7,1.59-1.05,2.38-1.74,3.97
			c-0.24,0.53-0.37,0.58-0.85,0.65c-1.93,0.25-2.9,0.37-4.83,0.61c-0.24,0.03-0.32-0.13-0.32-0.25c0-0.12,0.08-0.34,0.16-0.51
			c4.58-10.11,6.87-15.19,11.44-25.38c1.69-0.23,2.53-0.35,4.22-0.59c4.58,8.91,6.87,13.34,11.44,22.21
			c0.08,0.15,0.16,0.35,0.16,0.47c0,0.12-0.08,0.3-0.32,0.34c-1.93,0.29-2.9,0.44-4.83,0.72c-0.49,0.07-0.61,0.05-0.85-0.41
			C145.32,86.21,144.95,85.51,144.22,84.12z M134.32,81.15c3.21-0.43,4.82-0.66,8.03-1.12c-0.88-1.7-1.31-2.55-2.19-4.25
			c-0.85-1.65-1.7-4.16-1.7-4.16c-0.1,0.01-0.15,0.02-0.24,0.03c0,0-0.85,2.75-1.7,4.64C135.64,78.24,135.2,79.21,134.32,81.15z"/>
		<path class="st0" d="M163.45,61.3c0-0.25,0.24-0.53,0.49-0.57c4.51-0.7,6.77-1.06,11.28-1.77c5.92-0.93,10.14,1.68,10.14,7.07
			c0,3.74-2.23,6.59-5.48,8.24c0,0.03,0,0.05,0,0.08c0,0,0.73,0.67,1.3,1.44c1.64,2.18,2.46,3.27,4.1,5.46
			c0.2,0.26,0.24,0.42,0.24,0.5c0,0.16-0.08,0.3-0.32,0.34c-2.16,0.33-3.24,0.5-5.4,0.83c-0.2,0.03-0.49-0.09-0.65-0.31
			c-1.98-2.62-2.97-3.93-4.95-6.55c-2.09,0.33-3.14,0.49-5.23,0.82c0,2.89,0,4.34,0,7.24c0,0.25-0.24,0.53-0.49,0.57
			c-1.82,0.28-2.73,0.43-4.54,0.71c-0.24,0.04-0.49-0.17-0.49-0.42C163.45,75.51,163.45,70.77,163.45,61.3z M168.97,64.63
			c0,3.13,0,4.69,0,7.81c2.35-0.37,3.53-0.55,5.88-0.92c3.04-0.48,4.99-2.22,4.99-4.64s-1.95-3.65-4.99-3.17
			C172.5,64.07,171.33,64.26,168.97,64.63z"/>
		<path class="st0" d="M198.02,56.02c0-0.25,0.24-0.53,0.49-0.56c4.51-0.64,6.77-0.95,11.28-1.53c5.92-0.76,10.14,2.03,10.14,7.41
			c0,3.74-2.23,6.5-5.48,8.04c0,0.03,0,0.05,0,0.08c0,0,0.73,0.69,1.3,1.49c1.64,2.24,2.46,3.36,4.1,5.61
			c0.2,0.27,0.24,0.43,0.24,0.51c0,0.16-0.08,0.3-0.32,0.32c-2.16,0.24-3.24,0.37-5.4,0.63c-0.2,0.02-0.49-0.11-0.65-0.33
			c-1.98-2.69-2.97-4.02-4.95-6.7c-2.09,0.27-3.14,0.41-5.23,0.7c0,2.89,0,4.34,0,7.24c0,0.25-0.24,0.53-0.49,0.56
			c-1.82,0.25-2.73,0.38-4.54,0.63c-0.24,0.03-0.49-0.18-0.49-0.42C198.02,70.23,198.02,65.49,198.02,56.02z M203.54,59.44
			c0,3.13,0,4.69,0,7.81c2.35-0.32,3.53-0.48,5.88-0.78c3.04-0.39,4.99-2.06,4.99-4.49s-1.95-3.71-4.99-3.32
			C207.07,58.96,205.9,59.12,203.54,59.44z"/>
		<path class="st0" d="M260.75,50.02c0.24,0,0.49,0.24,0.49,0.49c0,9.47,0,14.21,0,23.68c0,0.25-0.24,0.5-0.49,0.5
			c-1.82,0.02-2.73,0.03-4.54,0.08c-0.24,0.01-0.49-0.23-0.49-0.48c0-6.04,0-9.05,0-15.09c-0.05,0-0.07,0-0.12,0
			c0,0-0.49,1.24-1.5,2.67c-2.87,4.18-4.31,6.29-7.18,10.53c-2.89-3.95-4.33-5.91-7.22-9.8c-0.97-1.33-1.46-2.53-1.46-2.53
			c-0.05,0-0.07,0.01-0.12,0.01c0,6.04,0,9.05,0,15.09c0,0.25-0.24,0.51-0.49,0.53c-1.82,0.14-2.73,0.21-4.54,0.37
			c-0.24,0.02-0.49-0.2-0.49-0.45c0-9.47,0-14.21,0-23.68c0-0.25,0.24-0.51,0.49-0.54c1.43-0.12,2.14-0.18,3.57-0.29
			c0.28-0.02,0.57,0.08,0.77,0.35c3.78,5.08,5.67,7.64,9.45,12.8c0.03,0,0.05,0,0.08,0c3.78-5.56,5.67-8.31,9.45-13.76
			c0.2-0.29,0.49-0.42,0.77-0.43C258.61,50.04,259.32,50.03,260.75,50.02z"/>
		<path class="st0" d="M280.63,64.89c0,2.24,0,3.36,0,5.59c5.71,0.35,8.57,0.6,14.28,1.28c0.24,0.03,0.57,0.4,0.57,0.64
			c0,1.41,0,2.12,0,3.54c0,0.25-0.32,0.54-0.57,0.51c-7.73-0.93-11.59-1.22-19.31-1.54c-0.24-0.01-0.49-0.27-0.49-0.51
			c0-9.47,0-14.21,0-23.68c0-0.25,0.24-0.48,0.49-0.47c7.63,0.32,11.44,0.6,19.07,1.51c0.24,0.03,0.57,0.4,0.57,0.64
			c0,1.41,0,2.12,0,3.54c0,0.25-0.32,0.54-0.57,0.51c-5.62-0.67-8.42-0.91-14.04-1.25c0,2.01,0,3.01,0,5.02
			c5.13,0.31,7.69,0.53,12.82,1.11c0.24,0.03,0.57,0.39,0.57,0.64c0,1.41,0,2.12,0,3.54c0,0.25-0.32,0.54-0.57,0.51
			C288.33,65.42,285.76,65.2,280.63,64.89z"/>
		<path class="st0" d="M328.71,83.26c-4.97-6.57-7.45-9.77-12.42-16c-1.3-1.61-2.76-3.76-2.76-3.76c-0.05-0.01-0.07-0.02-0.12-0.03
			c0,6.2,0,9.3,0,15.5c0,0.25-0.24,0.44-0.49,0.39c-1.82-0.37-2.73-0.55-4.54-0.88c-0.24-0.04-0.49-0.34-0.49-0.58
			c0-9.47,0-14.21,0-23.68c0-0.25,0.24-0.45,0.49-0.41c1.49,0.27,2.24,0.42,3.73,0.72c4.92,6.06,7.38,9.16,12.29,15.53
			c1.34,1.71,2.84,4.11,2.84,4.11c0.06,0.02,0.1,0.03,0.16,0.05c0-6.2,0-9.3,0-15.5c0-0.25,0.24-0.42,0.49-0.36
			c1.82,0.52,2.73,0.79,4.54,1.35c0.24,0.08,0.49,0.4,0.49,0.65c0,9.47,0,14.21,0,23.68c0,0.25-0.24,0.42-0.49,0.34
			C330.95,83.92,330.21,83.69,328.71,83.26z"/>
	</g>
</g>
</svg>
