<?xml version="1.0" encoding="utf-8"?>
<!-- Generator: Adobe Illustrator 25.2.0, SVG Export Plug-In . SVG Version: 6.00 Build 0)  -->
<svg version="1.1" id="Layer_1" xmlns="http://www.w3.org/2000/svg" xmlns:xlink="http://www.w3.org/1999/xlink" x="0px" y="0px"
	 viewBox="0 0 500 130" style="enable-background:new 0 0 500 130;" xml:space="preserve">
<style type="text/css">
	.st0{fill:#8FC3C1;}
</style>
<g>
	<g>
		<path class="st0" d="M5.83,105.12c-0.36-0.11-0.73-0.6-0.73-0.96c0-11.8,0-23.6,0-35.39c0-0.37,0.36-0.62,0.73-0.51
			c7.45,2.31,11.17,3.33,18.62,5.14c8.25,2,12.61,7.2,12.61,12.91c0,2.95-1.15,5.06-3.15,6.3c0,0.05,0,0.07,0,0.12
			c2.85,2.44,4.55,5.71,4.55,9.52c0,7.07-5.09,10.16-13.82,8.06C17.11,108.49,13.35,107.46,5.83,105.12z M13.35,77.49
			c0,3,0,4.5,0,7.5c4.22,1.19,6.33,1.74,10.55,2.77c3.64,0.89,4.91-0.57,4.91-2.53c0-2.09-1.64-4.16-5.52-5.11
			C19.32,79.14,17.33,78.61,13.35,77.49z M23.78,103.09c4.61,1.13,6.43,0.02,6.43-2.93c0-2.7-2.06-4.97-6.61-6.09
			c-4.1-1-6.15-1.54-10.25-2.7c0,3.59,0,5.38,0,8.97C17.52,101.53,19.61,102.07,23.78,103.09z"/>
		<path class="st0" d="M51.91,79.8c-0.24-0.41-0.3-0.6-0.3-0.72c0-0.18,0.12-0.35,0.36-0.31c3.08,0.46,4.62,0.68,7.7,1.07
			c0.73,0.09,1.03,0.25,1.45,0.92c2.5,3.87,3.75,5.79,6.25,9.62c1.33,1.98,3.03,5.28,3.03,5.28c0.1,0.01,0.15,0.01,0.24,0.02
			c0,0,1.64-2.86,3.03-4.7c2.5-3.35,3.75-5.03,6.25-8.42c0.42-0.59,0.73-0.69,1.45-0.64c3.08,0.2,4.62,0.29,7.7,0.43
			c0.24,0.01,0.36,0.2,0.36,0.38c0,0.12-0.06,0.3-0.3,0.66c-5.8,8.17-8.69,12.2-14.49,20.14c0,5.6,0,8.41,0,14.01
			c0,0.37-0.36,0.71-0.73,0.68c-2.72-0.23-4.07-0.36-6.79-0.65c-0.36-0.04-0.73-0.45-0.73-0.81c0-5.6,0-8.41,0-14.01
			C60.61,93.69,57.71,89.1,51.91,79.8z"/>
		<path class="st0" d="M160.57,94.98c-0.61,0.06-0.91-0.16-1.03-0.89c-0.61-4.18-4.43-7.08-9.88-6.65
			c-6.25,0.49-11.34,5.64-11.34,12.83c0,7.13,4.85,11.77,11.34,11.26c5.52-0.43,9.22-3.55,9.88-7.73c0.12-0.81,0.42-1.08,1.15-1.15
			c2.43-0.23,3.64-0.35,6.06-0.6c0.48-0.05,1.03,0.2,1.03,0.81c0,7.93-7.4,14.78-18.13,15.67c-10.66,0.89-19.65-7.01-19.59-17.83
			c0.07-11.02,8.81-19.43,19.59-20.26c11.51-0.89,18.13,5.71,18.13,13.02c0,0.43-0.3,0.83-0.97,0.9
			C164.31,94.62,163.07,94.74,160.57,94.98z"/>
		<path class="st0" d="M211.62,104.28c-7.08,1.03-10.62,1.53-17.71,2.47c-1.04,2.37-1.56,3.56-2.61,5.93
			c-0.36,0.79-0.55,0.87-1.27,0.96c-2.89,0.37-4.33,0.55-7.22,0.91c-0.36,0.04-0.48-0.19-0.48-0.37c0-0.18,0.12-0.51,0.24-0.77
			c5.72-12.63,11.41-25.27,17.1-37.92c2.52-0.35,3.78-0.52,6.31-0.88c5.69,11.07,11.39,22.13,17.1,33.19
			c0.12,0.23,0.24,0.52,0.24,0.7c0,0.18-0.12,0.45-0.48,0.5c-2.89,0.44-4.33,0.65-7.22,1.08c-0.73,0.11-0.91,0.07-1.27-0.61
			C213.26,107.4,212.71,106.36,211.62,104.28z M196.83,99.85c4.8-0.65,7.2-0.99,12.01-1.68c-1.31-2.54-1.96-3.81-3.27-6.35
			c-1.27-2.46-2.55-6.22-2.55-6.22c-0.15,0.02-0.22,0.03-0.36,0.05c0,0-1.27,4.11-2.55,6.93C198.79,95.49,198.14,96.94,196.83,99.85
			z"/>
		<path class="st0" d="M240.36,70.18c0-0.37,0.36-0.79,0.73-0.85c6.74-1.05,10.11-1.59,16.86-2.64c8.85-1.38,15.16,2.51,15.16,10.56
			c0,5.59-3.33,9.85-8.19,12.32c0,0.05,0,0.07,0,0.12c0,0,1.09,1,1.94,2.16c2.45,3.26,3.67,4.89,6.12,8.16
			c0.3,0.38,0.36,0.62,0.36,0.74c0,0.25-0.12,0.45-0.48,0.5c-3.23,0.49-4.84,0.74-8.06,1.24c-0.3,0.05-0.73-0.13-0.97-0.46
			c-2.96-3.92-4.44-5.87-7.4-9.79c-3.13,0.49-4.69,0.73-7.82,1.23c0,4.33,0,6.49,0,10.81c0,0.37-0.36,0.79-0.73,0.85
			c-2.72,0.43-4.07,0.64-6.79,1.06c-0.36,0.06-0.73-0.25-0.73-0.62C240.36,93.77,240.36,81.97,240.36,70.18z M248.61,75.15
			c0,4.67,0,7,0,11.67c3.52-0.55,5.28-0.83,8.79-1.38c4.55-0.71,7.46-3.31,7.46-6.94c0-3.63-2.91-5.45-7.46-4.74
			C253.88,74.33,252.12,74.6,248.61,75.15z"/>
		<path class="st0" d="M292.02,62.28c0-0.37,0.36-0.79,0.73-0.84c6.74-0.96,10.11-1.42,16.86-2.28c8.85-1.13,15.16,3.03,15.16,11.08
			c0,5.59-3.33,9.71-8.19,12.01c0,0.05,0,0.07,0,0.12c0,0,1.09,1.04,1.94,2.23c2.45,3.35,3.67,5.02,6.12,8.39
			c0.3,0.4,0.36,0.63,0.36,0.76c0,0.25-0.12,0.44-0.48,0.48c-3.23,0.36-4.84,0.55-8.07,0.94c-0.3,0.04-0.73-0.16-0.97-0.5
			c-2.96-4.01-4.44-6.01-7.4-10.01c-3.13,0.41-4.69,0.61-7.82,1.04c0,4.33,0,6.49,0,10.81c0,0.37-0.36,0.79-0.73,0.84
			c-2.72,0.37-4.07,0.56-6.79,0.95c-0.36,0.05-0.73-0.26-0.73-0.63C292.02,85.88,292.02,74.08,292.02,62.28z M300.27,67.4
			c0,4.67,0,7,0,11.67c3.52-0.48,5.28-0.71,8.79-1.17c4.55-0.59,7.46-3.08,7.46-6.71c0-3.63-2.91-5.55-7.46-4.97
			C305.54,66.69,303.78,66.92,300.27,67.4z"/>
		<path class="st0" d="M385.76,53.32c0.36,0,0.73,0.36,0.73,0.73c0,11.8,0,23.6,0,35.39c0,0.37-0.36,0.74-0.73,0.74
			c-2.72,0.03-4.07,0.05-6.79,0.12c-0.36,0.01-0.73-0.35-0.73-0.72c0-9.02,0-13.53,0-22.55c-0.07,0-0.11,0-0.18,0
			c0,0-0.73,1.86-2.24,4c-4.29,6.25-6.44,9.4-10.73,15.74c-4.32-5.9-6.48-8.83-10.79-14.64c-1.45-1.99-2.18-3.78-2.18-3.78
			c-0.07,0.01-0.11,0.01-0.18,0.01c0,9.02,0,13.53,0,22.55c0,0.37-0.36,0.76-0.73,0.79c-2.72,0.2-4.07,0.31-6.79,0.55
			c-0.36,0.03-0.73-0.31-0.73-0.68c0-11.8,0-23.6,0-35.39c0-0.37,0.36-0.77,0.73-0.8c2.13-0.18,3.2-0.27,5.34-0.43
			c0.43-0.03,0.85,0.12,1.15,0.53c5.65,7.59,8.48,11.41,14.13,19.13c0.05,0,0.07,0,0.12-0.01c5.65-8.3,8.48-12.42,14.13-20.56
			c0.3-0.44,0.73-0.63,1.15-0.64C382.56,53.35,383.63,53.34,385.76,53.32z"/>
		<path class="st0" d="M415.47,75.54c0,3.34,0,5.01,0,8.36c8.54,0.52,12.81,0.89,21.34,1.92c0.36,0.04,0.85,0.59,0.85,0.96
			c0,2.11,0,3.17,0,5.28c0,0.37-0.48,0.8-0.85,0.76c-9.54-1.18-19.25-1.95-28.86-2.3c-0.36-0.02-0.73-0.4-0.73-0.77
			c0-11.8,0-23.6,0-35.39c0-0.37,0.36-0.72,0.73-0.71c9.49,0.35,19.07,1.1,28.5,2.26c0.36,0.04,0.85,0.59,0.85,0.96
			c0,2.11,0,3.17,0,5.28c0,0.37-0.48,0.8-0.85,0.76c-8.39-1-12.59-1.36-20.98-1.87c0,3,0,4.5,0,7.5c7.66,0.47,11.5,0.79,19.16,1.66
			c0.36,0.04,0.85,0.59,0.85,0.96c0,2.11,0,3.17,0,5.28c0,0.37-0.48,0.8-0.85,0.76C426.97,76.33,423.13,76,415.47,75.54z"/>
		<path class="st0" d="M487.32,103c-6.07-8.05-12.26-16.03-18.55-23.91c-1.94-2.4-4.12-5.62-4.12-5.62
			c-0.07-0.02-0.11-0.02-0.18-0.04c0,9.27,0,13.9,0,23.16c0,0.37-0.36,0.66-0.73,0.59c-2.72-0.56-4.07-0.82-6.79-1.32
			c-0.36-0.07-0.73-0.5-0.73-0.87c0-11.8,0-23.6,0-35.39c0-0.37,0.36-0.67,0.73-0.6c2.23,0.41,3.35,0.62,5.58,1.07
			c6.23,7.65,12.36,15.39,18.37,23.21c2,2.56,4.24,6.14,4.24,6.14c0.1,0.03,0.15,0.04,0.24,0.07c0-9.27,0-13.9,0-23.17
			c0-0.37,0.36-0.63,0.73-0.53c2.72,0.77,4.07,1.18,6.79,2.02c0.36,0.11,0.73,0.6,0.73,0.96c0,11.8,0,23.6,0,35.39
			c0,0.37-0.36,0.62-0.73,0.51C490.67,103.98,489.55,103.64,487.32,103z"/>
	</g>
</g>
</svg>
