<?xml version="1.0" encoding="utf-8"?>
<!-- Generator: Adobe Illustrator 25.2.0, SVG Export Plug-In . SVG Version: 6.00 Build 0)  -->
<svg version="1.1" id="Layer_1" xmlns="http://www.w3.org/2000/svg" xmlns:xlink="http://www.w3.org/1999/xlink" x="0px" y="0px"
	 viewBox="0 0 595.28 595.28" style="enable-background:new 0 0 595.28 595.28;" xml:space="preserve">
<style type="text/css">
	.st0{fill:#8FC3C1;}
</style>
<g>
	<path class="st0" d="M61.7,420.52c-2.15,0-4.31-2.46-4.31-4.92V179.67c0-2.46,2.15-4.92,4.31-4.92h110.16
		c48.8,0,74.64,29.49,74.64,67.58c0,19.66-6.82,35.23-18.66,46.29v0.82c16.87,12.29,26.91,31.95,26.91,57.34
		c0,47.11-30.14,73.73-81.82,73.73H61.7z M106.2,221.45v49.97h62.44c21.53,0,29.07-11.47,29.07-24.58c0-13.93-9.69-25.4-32.65-25.4
		H106.2z M167.92,373.82c27.27,0,38.04-9.83,38.04-29.49c0-18.02-12.2-30.31-39.11-30.31H106.2v59.8H167.92z"/>
	<path class="st0" d="M495.18,273.88c-3.59,0-5.38-1.64-6.1-6.55c-3.59-28.26-26.2-49.97-58.49-49.97
		c-36.96,0-67.1,32.36-67.1,80.28c0,47.51,28.71,80.28,67.1,80.28c32.65,0,54.54-18.43,58.49-45.88c0.72-5.32,2.51-6.96,6.82-6.96
		h35.88c2.87,0,6.1,2.05,6.1,6.14c0,52.84-43.42,93.39-107.29,93.39c-64.95,0-115.91-51.2-115.91-126.98
		c0-75.37,50.96-126.98,115.91-126.98c68.18,0,107.29,49.15,107.29,97.9c0,2.87-1.79,5.33-5.74,5.33H495.18z"/>
</g>
</svg>
